<svg width="131" height="132" viewBox="0 0 131 132" fill="none" xmlns="http://www.w3.org/2000/svg">
<path d="M130.995 66C130.988 78.1292 127.67 90.0225 121.403 100.377C115.137 110.731 106.164 119.146 95.4675 124.701C94.8414 125.031 94.2051 125.347 93.5639 125.652C93.276 125.795 92.9933 125.927 92.7004 126.06C90.8725 126.905 88.9975 127.663 87.0754 128.335C85.5606 128.869 84.0054 129.353 82.435 129.77C67.6032 133.752 51.8563 132.371 37.9297 125.866C37.3592 125.596 36.7886 125.322 36.2281 125.037C25.8012 119.779 16.956 111.81 10.6064 101.952C4.25691 92.0955 0.633373 80.7081 0.110167 68.967C-0.41304 57.2258 2.18308 45.5568 7.63031 35.1656C13.0775 24.7743 21.1783 16.0377 31.0955 9.85855C41.0128 3.67936 52.3869 0.28168 64.0426 0.0165558C75.6983 -0.248568 87.2128 2.62848 97.3964 8.35045C107.58 14.0724 116.063 22.4318 121.97 32.5647C127.877 42.6977 130.992 54.2368 130.995 65.9898V66Z" fill="url(#paint0_linear_1_251)"/>
<defs>
<linearGradient id="paint0_linear_1_251" x1="65.7883" y1="7.16742" x2="63.5124" y2="137.263" gradientUnits="userSpaceOnUse">
<stop stop-color="white" stop-opacity="0"/>
<stop offset="1" stop-color="#64B5F6" stop-opacity="0.6"/>
</linearGradient>
</defs>
</svg>
