<svg width="166" height="53" viewBox="0 0 166 53" fill="none" xmlns="http://www.w3.org/2000/svg">
<path fill-rule="evenodd" clip-rule="evenodd" d="M9.81467 0.494019H156.526C159.787 0.494019 160.967 0.859234 162.159 1.53749C163.336 2.20479 164.298 3.23651 164.92 4.49835C165.553 5.7766 165.894 7.04181 165.894 10.5244V42.6373C165.894 46.1199 165.553 47.3851 164.92 48.6634C164.298 49.9252 163.336 50.9569 162.159 51.6242C160.967 52.3025 159.787 52.6677 156.539 52.6677H9.80251C6.55441 52.6677 5.37439 52.3025 4.18221 51.6242C3.00534 50.9569 2.04309 49.9252 1.42072 48.6634C0.788134 47.3851 0.44751 46.1199 0.44751 42.6373V10.5244C0.44751 7.04181 0.788134 5.7766 1.42072 4.49835C2.04309 3.23651 3.00534 2.20479 4.18221 1.53749C5.37439 0.859234 6.55441 0.494019 9.80251 0.494019H9.81467Z" fill="black"/>
</svg>
